<svg width="323" height="59" viewBox="0 0 323 59" fill="none" xmlns="http://www.w3.org/2000/svg">
<path d="M103.277 22.7272C99.4866 23.033 96.8411 24.027 95.3402 25.709C93.8394 27.391 93.0889 30.4237 93.0889 34.8072V56.2529H83.3207V14.2024H92.4784V19.0574C93.9538 17.1715 95.5692 15.7953 97.3244 14.9288C99.0796 14.0368 101.064 13.5908 103.277 13.5908V22.7272Z" fill="#171717"/>
<path d="M112.38 34.9601C112.38 38.8593 113.448 41.9557 115.585 44.2494C117.722 46.5176 120.622 47.6517 124.285 47.6517C127.897 47.6517 130.771 46.4921 132.908 44.1729C135.071 41.8283 136.152 38.6809 136.152 34.7307C136.152 31.1883 135.02 28.283 132.756 26.0148C130.517 23.7211 127.693 22.5743 124.285 22.5743C120.774 22.5743 117.913 23.7339 115.699 26.053C113.486 28.3467 112.38 31.3157 112.38 34.9601ZM102.306 35.0365C102.306 32.0803 102.84 29.2769 103.909 26.6264C105.003 23.9505 106.58 21.5804 108.64 19.5161C110.752 17.4008 113.13 15.7825 115.776 14.6612C118.421 13.5143 121.169 12.9409 124.018 12.9409C127.045 12.9409 129.83 13.4506 132.374 14.47C134.943 15.464 137.296 16.9676 139.433 18.9809C141.621 21.0962 143.313 23.5427 144.508 26.3206C145.704 29.073 146.301 31.9019 146.301 34.8072C146.301 38.0183 145.78 40.9491 144.737 43.5995C143.694 46.25 142.13 48.6456 140.044 50.7863C137.958 52.9526 135.579 54.5964 132.908 55.7177C130.237 56.8136 127.337 57.3615 124.208 57.3615C121.054 57.3615 118.18 56.8008 115.585 55.6795C112.99 54.5581 110.624 52.8761 108.488 50.6334C106.453 48.4417 104.914 46.0334 103.871 43.4084C102.828 40.7579 102.306 37.9673 102.306 35.0365Z" fill="#171717"/>
<path d="M180.321 29.1495C179.151 26.9577 177.65 25.314 175.818 24.2181C174.012 23.1222 171.863 22.5743 169.37 22.5743C166.063 22.5743 163.29 23.7721 161.052 26.1677C158.838 28.5633 157.732 31.5706 157.732 35.1894C157.732 38.7574 158.864 41.7264 161.128 44.0965C163.417 46.4666 166.279 47.6517 169.713 47.6517C172.359 47.6517 174.559 47.091 176.314 45.9697C178.07 44.8228 179.38 43.1153 180.245 40.8471H190.662C189.39 45.9951 186.909 50.0345 183.221 52.9653C179.532 55.8961 175.055 57.3615 169.79 57.3615C166.686 57.3615 163.812 56.8136 161.166 55.7177C158.52 54.5964 156.129 52.9526 153.992 50.7863C152.008 48.7475 150.457 46.3647 149.337 43.6378C148.218 40.8854 147.658 38.0947 147.658 35.2659C147.658 32.3096 148.167 29.5445 149.185 26.9705C150.202 24.3965 151.703 22.0773 153.687 20.013C155.875 17.6939 158.342 15.9354 161.09 14.7376C163.837 13.5398 166.788 12.9409 169.942 12.9409C175.081 12.9409 179.532 14.4063 183.297 17.3371C187.062 20.2679 189.542 24.2054 190.738 29.1495H180.321Z" fill="#171717"/>
<path d="M204.572 56.2529H195.147V0.593381H204.572V33.6986L218.194 14.2024H229.222L214.684 34.1573L232.084 56.2529H219.835L204.572 34.8836V56.2529Z" fill="#171717"/>
<path d="M250.306 30.7168V39.7385H230.617V30.7168H250.306Z" fill="#171717"/>
<path d="M263.186 34.8836C263.186 38.4261 264.356 41.3951 266.697 43.7907C269.062 46.1608 271.937 47.3458 275.32 47.3458C278.398 47.3458 281.107 46.148 283.448 43.7524C285.788 41.3568 286.958 38.5535 286.958 35.3424C286.958 31.9273 285.775 28.9966 283.41 26.55C281.069 24.0779 278.322 22.8419 275.168 22.8419C271.861 22.8419 269.037 24.0142 266.697 26.3588C264.356 28.678 263.186 31.5196 263.186 34.8836ZM288.065 56.2529V51.0922C286.895 53.1819 285.241 54.7238 283.104 55.7177C280.993 56.7116 278.284 57.2086 274.977 57.2086C268.77 57.2086 263.581 55.0933 259.409 50.8628C255.262 46.6068 253.189 41.3314 253.189 35.0365C253.189 32.0803 253.711 29.2769 254.753 26.6264C255.796 23.976 257.285 21.6441 259.218 19.6308C261.304 17.4136 263.619 15.7825 266.163 14.7376C268.706 13.6673 271.568 13.1321 274.748 13.1321C277.8 13.1321 280.421 13.6418 282.608 14.6612C284.821 15.6806 286.602 17.2224 287.95 19.2867V14.2024H297.49V56.2529H288.065Z" fill="#171717"/>
<path d="M306.783 56.2529V22.9184H300.373V14.2024H306.783V0.593381H316.551V14.2024H323V22.9184H316.551V56.2529H306.783Z" fill="#171717"/>
<path fill-rule="evenodd" clip-rule="evenodd" d="M41.3186 12.1682H21.5575V2C21.5575 0.895431 22.453 0 23.5575 0H41.3186C52.6098 0 61.7632 9.17025 61.7632 20.4823V37.5951C61.7632 38.6997 60.8677 39.5951 59.7632 39.5951H49.6174V20.4823C49.6174 15.8906 45.9019 12.1682 41.3186 12.1682ZM22.2248 30.166H0V19.9978C0 18.8932 0.895428 17.9978 2 17.9978H22.2248C33.516 17.9978 42.6693 27.168 42.6693 38.4801V57C42.6693 58.1046 41.7739 59 40.6693 59H30.5236V38.4801C30.5236 33.8883 26.8081 30.166 22.2248 30.166Z" fill="#943AFF"/>
</svg>
